<?xml version="1.0" encoding="UTF-8" standalone="no"?>
<svg
        xmlns:inkscape="http://www.inkscape.org/namespaces/inkscape"
        xmlns:sodipodi="http://sodipodi.sourceforge.net/DTD/sodipodi-0.dtd"
        viewBox="0 0 1333.33 1333.3"
        shape-rendering="geometricPrecision"
        text-rendering="geometricPrecision"
        image-rendering="optimizeQuality"
        fill-rule="evenodd"
        clip-rule="evenodd"
        version="1.1"
        id="svg4"
        sodipodi:docname="spotitag.svg"
        xml:space="preserve"
        inkscape:version="1.2 (dc2aedaf03, 2022-05-15)"
        xmlns="http://www.w3.org/2000/svg"
><defs
     id="defs8" />
    <sodipodi:namedview
            id="namedview6"
            pagecolor="#ffffff"
            bordercolor="#666666"
            borderopacity="1.0"
            inkscape:showpageshadow="2"
            inkscape:pageopacity="0.0"
            inkscape:pagecheckerboard="0"
            inkscape:deskcolor="#d1d1d1"
            showgrid="false"
            inkscape:zoom="0.44495805"
            inkscape:cx="465.21239"
            inkscape:cy="611.29358"
            inkscape:window-width="1920"
            inkscape:window-height="1011"
            inkscape:window-x="0"
            inkscape:window-y="32"
            inkscape:window-maximized="1"
            inkscape:current-layer="g2370"/>
    <g
            style="fill:none;stroke:currentColor;stroke-width:2"
            id="g223"
            transform="matrix(50,0,0,50,66.832571,66.817591)"
            inkscape:groupmode="layer"><g
       id="g2370"><path
         d="M 666.66,0 C 298.48,0 0,298.47 0,666.65 c 0,368.19 298.48,666.65 666.66,666.65 368.22,0 666.67,-298.45 666.67,-666.65 0,-368.16 -298.45,-666.62 -666.68,-666.62 l 0.01,-0.04 z"
         fill="#1ed760"
         fill-rule="nonzero"
         id="path2"
         sodipodi:nodetypes="csssccc"
         transform="matrix(0.02,0,0,0.02,-1.3366514,-1.3363518)" /><path
            stroke-linecap="round"
            stroke-linejoin="round"
            d="m 8.5493631,8.3493633 h 0.0081 m -0.0081,-3.24 h 4.0499999 c 0.41472,0 0.82944,0.15795 1.14534,0.47466 l 5.67,5.6699997 a 1.62,1.62 0 0 1 0,2.29068 l -5.67,5.67 a 1.62,1.62 0 0 1 -2.29068,0 l -5.6699999,-5.67 a 1.61514,1.61514 0 0 1 -0.47466,-1.14534 V 8.3493633 a 3.24,3.24 0 0 1 3.24,-3.24 z"
            id="path214"
            style="opacity:1;stroke:#ffffff;stroke-width:1.62;stroke-opacity:1"/></g></g></svg>
